<mxfile host="app.diagrams.net" modified="2022-07-08T08:52:36.959Z" agent="5.0 (Windows NT 10.0; Win64; x64) AppleWebKit/537.36 (KHTML, like Gecko) Chrome/103.0.5060.114 Safari/537.36 Edg/103.0.1264.49" etag="oCtgWPVASjWFu945JYpr" version="20.0.4" type="github">
  <diagram id="q4DbutcKK7p-0qS4GxbQ" name="Page-1">
    <mxGraphModel dx="2307" dy="1198" grid="1" gridSize="10" guides="1" tooltips="1" connect="1" arrows="1" fold="1" page="1" pageScale="1" pageWidth="850" pageHeight="1100" math="0" shadow="0">
      <root>
        <mxCell id="0" />
        <mxCell id="1" parent="0" />
        <mxCell id="SQCVgLtViS05Q7iUAaWb-119" value="&lt;font style=&quot;font-size: 24px;&quot;&gt;Availability zone&lt;/font&gt;" style="sketch=0;outlineConnect=0;gradientColor=none;html=1;whiteSpace=wrap;fontSize=12;fontStyle=0;shape=mxgraph.aws4.group;grIcon=mxgraph.aws4.group_availability_zone;strokeColor=default;fillColor=none;verticalAlign=top;align=left;spacingLeft=30;fontColor=#545B64;dashed=1;strokeWidth=2;" vertex="1" parent="1">
          <mxGeometry x="920" y="240" width="480" height="960" as="geometry" />
        </mxCell>
        <mxCell id="DpT2R7imNi2lBxHPkehf-27" value="NLB&lt;br&gt;Port 80" style="text;html=1;strokeColor=none;fillColor=none;align=center;verticalAlign=middle;whiteSpace=wrap;rounded=0;fontSize=24;" parent="1" vertex="1">
          <mxGeometry x="1037.75" y="281.25" width="162" height="118.75" as="geometry" />
        </mxCell>
        <mxCell id="SQCVgLtViS05Q7iUAaWb-3" value="" style="rounded=0;whiteSpace=wrap;html=1;fillColor=none;strokeWidth=3;" vertex="1" parent="1">
          <mxGeometry x="399.75" y="281.25" width="800" height="120" as="geometry" />
        </mxCell>
        <mxCell id="SQCVgLtViS05Q7iUAaWb-116" value="" style="rounded=1;whiteSpace=wrap;html=1;fontSize=24;strokeWidth=3;fillColor=none;" vertex="1" parent="1">
          <mxGeometry x="1520" y="220" width="560" height="320" as="geometry" />
        </mxCell>
        <mxCell id="SQCVgLtViS05Q7iUAaWb-146" style="edgeStyle=orthogonalEdgeStyle;rounded=0;orthogonalLoop=1;jettySize=auto;html=1;entryX=1;entryY=0.5;entryDx=0;entryDy=0;fontSize=24;strokeWidth=3;" edge="1" parent="1" source="SQCVgLtViS05Q7iUAaWb-128" target="SQCVgLtViS05Q7iUAaWb-138">
          <mxGeometry relative="1" as="geometry" />
        </mxCell>
        <mxCell id="SQCVgLtViS05Q7iUAaWb-128" value="" style="sketch=0;outlineConnect=0;fontColor=#232F3E;gradientColor=none;fillColor=#4D27AA;strokeColor=none;dashed=0;verticalLabelPosition=bottom;verticalAlign=top;align=center;html=1;fontSize=12;fontStyle=0;aspect=fixed;pointerEvents=1;shape=mxgraph.aws4.network_load_balancer;" vertex="1" parent="1">
          <mxGeometry x="973.25" y="307.75" width="64.5" height="64.5" as="geometry" />
        </mxCell>
        <mxCell id="SQCVgLtViS05Q7iUAaWb-118" value="&lt;font style=&quot;font-size: 24px;&quot;&gt;Availability zone&lt;/font&gt;" style="sketch=0;outlineConnect=0;gradientColor=none;html=1;whiteSpace=wrap;fontSize=12;fontStyle=0;shape=mxgraph.aws4.group;grIcon=mxgraph.aws4.group_availability_zone;strokeColor=#000000;fillColor=none;verticalAlign=top;align=left;spacingLeft=30;fontColor=#545B64;dashed=1;strokeWidth=2;" vertex="1" parent="1">
          <mxGeometry x="200" y="240" width="480" height="960" as="geometry" />
        </mxCell>
        <mxCell id="DpT2R7imNi2lBxHPkehf-3" value="Region" style="points=[[0,0],[0.25,0],[0.5,0],[0.75,0],[1,0],[1,0.25],[1,0.5],[1,0.75],[1,1],[0.75,1],[0.5,1],[0.25,1],[0,1],[0,0.75],[0,0.5],[0,0.25]];outlineConnect=0;gradientColor=none;html=1;whiteSpace=wrap;fontSize=24;fontStyle=0;container=0;pointerEvents=0;collapsible=0;recursiveResize=0;shape=mxgraph.aws4.group;grIcon=mxgraph.aws4.group_region;strokeColor=#147EBA;fillColor=none;verticalAlign=top;align=left;spacingLeft=30;fontColor=#147EBA;dashed=1;" parent="1" vertex="1">
          <mxGeometry x="120" y="80" width="1360" height="1360" as="geometry" />
        </mxCell>
        <mxCell id="DpT2R7imNi2lBxHPkehf-4" value="VPC" style="points=[[0,0],[0.25,0],[0.5,0],[0.75,0],[1,0],[1,0.25],[1,0.5],[1,0.75],[1,1],[0.75,1],[0.5,1],[0.25,1],[0,1],[0,0.75],[0,0.5],[0,0.25]];outlineConnect=0;gradientColor=none;html=1;whiteSpace=wrap;fontSize=24;fontStyle=0;container=0;pointerEvents=0;collapsible=0;recursiveResize=0;shape=mxgraph.aws4.group;grIcon=mxgraph.aws4.group_vpc;strokeColor=#248814;fillColor=none;verticalAlign=top;align=left;spacingLeft=30;fontColor=#AAB7B8;dashed=0;" parent="1" vertex="1">
          <mxGeometry x="160" y="160" width="1280" height="1060" as="geometry" />
        </mxCell>
        <mxCell id="SQCVgLtViS05Q7iUAaWb-13" value="&lt;font style=&quot;font-size: 24px;&quot;&gt;A1&lt;/font&gt;" style="text;html=1;strokeColor=default;fillColor=none;align=center;verticalAlign=middle;whiteSpace=wrap;rounded=0;" vertex="1" parent="1">
          <mxGeometry x="1764" y="420" width="75.5" height="40" as="geometry" />
        </mxCell>
        <mxCell id="SQCVgLtViS05Q7iUAaWb-14" value="" style="endArrow=classic;html=1;rounded=0;fontSize=24;strokeWidth=3;exitX=1;exitY=0.5;exitDx=0;exitDy=0;exitPerimeter=0;entryX=0;entryY=0.5;entryDx=0;entryDy=0;" edge="1" parent="1" source="SQCVgLtViS05Q7iUAaWb-24" target="SQCVgLtViS05Q7iUAaWb-13">
          <mxGeometry width="50" height="50" relative="1" as="geometry">
            <mxPoint x="1629.5" y="399" as="sourcePoint" />
            <mxPoint x="1779.5" y="395" as="targetPoint" />
          </mxGeometry>
        </mxCell>
        <mxCell id="SQCVgLtViS05Q7iUAaWb-16" value="&lt;font style=&quot;font-size: 24px;&quot;&gt;A2&lt;/font&gt;" style="text;html=1;strokeColor=default;fillColor=none;align=center;verticalAlign=middle;whiteSpace=wrap;rounded=0;" vertex="1" parent="1">
          <mxGeometry x="1759.5" y="260" width="80" height="40" as="geometry" />
        </mxCell>
        <mxCell id="SQCVgLtViS05Q7iUAaWb-24" value="" style="outlineConnect=0;dashed=0;verticalLabelPosition=bottom;verticalAlign=top;align=center;html=1;shape=mxgraph.aws3.application_load_balancer;fillColor=#F58536;gradientColor=none;" vertex="1" parent="1">
          <mxGeometry x="1560" y="404" width="69" height="72" as="geometry" />
        </mxCell>
        <mxCell id="SQCVgLtViS05Q7iUAaWb-135" style="edgeStyle=orthogonalEdgeStyle;rounded=0;orthogonalLoop=1;jettySize=auto;html=1;entryX=0;entryY=0.5;entryDx=0;entryDy=0;fontSize=24;strokeWidth=3;" edge="1" parent="1" source="SQCVgLtViS05Q7iUAaWb-25" target="SQCVgLtViS05Q7iUAaWb-16">
          <mxGeometry relative="1" as="geometry" />
        </mxCell>
        <mxCell id="SQCVgLtViS05Q7iUAaWb-25" value="" style="sketch=0;outlineConnect=0;fontColor=#232F3E;gradientColor=none;fillColor=#4D27AA;strokeColor=none;dashed=0;verticalLabelPosition=bottom;verticalAlign=top;align=center;html=1;fontSize=12;fontStyle=0;aspect=fixed;pointerEvents=1;shape=mxgraph.aws4.network_load_balancer;" vertex="1" parent="1">
          <mxGeometry x="1560" y="249" width="64.5" height="64.5" as="geometry" />
        </mxCell>
        <mxCell id="DpT2R7imNi2lBxHPkehf-96" value="" style="outlineConnect=0;dashed=0;verticalLabelPosition=bottom;verticalAlign=top;align=center;html=1;shape=mxgraph.aws3.internet_gateway;fillColor=#F58534;gradientColor=none;" parent="1" vertex="1">
          <mxGeometry x="765.25" y="130" width="69" height="72" as="geometry" />
        </mxCell>
        <mxCell id="SQCVgLtViS05Q7iUAaWb-109" value="" style="group" vertex="1" connectable="0" parent="1">
          <mxGeometry x="960" y="640" width="400" height="520" as="geometry" />
        </mxCell>
        <mxCell id="DpT2R7imNi2lBxHPkehf-13" value="Private subnet" style="points=[[0,0],[0.25,0],[0.5,0],[0.75,0],[1,0],[1,0.25],[1,0.5],[1,0.75],[1,1],[0.75,1],[0.5,1],[0.25,1],[0,1],[0,0.75],[0,0.5],[0,0.25]];outlineConnect=0;gradientColor=none;html=1;whiteSpace=wrap;fontSize=24;fontStyle=0;container=1;pointerEvents=0;collapsible=0;recursiveResize=0;shape=mxgraph.aws4.group;grIcon=mxgraph.aws4.group_security_group;grStroke=0;strokeColor=#147EBA;fillColor=#E6F2F8;verticalAlign=top;align=left;spacingLeft=30;fontColor=#147EBA;dashed=0;" parent="SQCVgLtViS05Q7iUAaWb-109" vertex="1">
          <mxGeometry width="400" height="520" as="geometry" />
        </mxCell>
        <mxCell id="SQCVgLtViS05Q7iUAaWb-104" value="" style="sketch=0;points=[[0,0,0],[0.25,0,0],[0.5,0,0],[0.75,0,0],[1,0,0],[0,1,0],[0.25,1,0],[0.5,1,0],[0.75,1,0],[1,1,0],[0,0.25,0],[0,0.5,0],[0,0.75,0],[1,0.25,0],[1,0.5,0],[1,0.75,0]];outlineConnect=0;fontColor=#232F3E;gradientColor=#F78E04;gradientDirection=north;fillColor=#D05C17;strokeColor=#ffffff;dashed=0;verticalLabelPosition=bottom;verticalAlign=top;align=center;html=1;fontSize=12;fontStyle=0;aspect=fixed;shape=mxgraph.aws4.resourceIcon;resIcon=mxgraph.aws4.ec2;" vertex="1" parent="SQCVgLtViS05Q7iUAaWb-109">
          <mxGeometry x="20" y="221" width="78" height="78" as="geometry" />
        </mxCell>
        <mxCell id="DpT2R7imNi2lBxHPkehf-34" value="" style="outlineConnect=0;dashed=0;verticalLabelPosition=bottom;verticalAlign=top;align=center;html=1;shape=mxgraph.aws3.rds_db_instance_standby_multi_az;fillColor=#2E73B8;gradientColor=none;fontSize=24;" parent="SQCVgLtViS05Q7iUAaWb-109" vertex="1">
          <mxGeometry x="20" y="380" width="80" height="90" as="geometry" />
        </mxCell>
        <mxCell id="SQCVgLtViS05Q7iUAaWb-107" value="" style="group" vertex="1" connectable="0" parent="1">
          <mxGeometry x="239" y="600" width="400" height="560" as="geometry" />
        </mxCell>
        <mxCell id="DpT2R7imNi2lBxHPkehf-12" value="Private subnet" style="points=[[0,0],[0.25,0],[0.5,0],[0.75,0],[1,0],[1,0.25],[1,0.5],[1,0.75],[1,1],[0.75,1],[0.5,1],[0.25,1],[0,1],[0,0.75],[0,0.5],[0,0.25]];outlineConnect=0;gradientColor=none;html=1;whiteSpace=wrap;fontSize=24;fontStyle=0;container=1;pointerEvents=0;collapsible=0;recursiveResize=0;shape=mxgraph.aws4.group;grIcon=mxgraph.aws4.group_security_group;grStroke=0;strokeColor=#147EBA;fillColor=#E6F2F8;verticalAlign=top;align=left;spacingLeft=30;fontColor=#147EBA;dashed=0;" parent="SQCVgLtViS05Q7iUAaWb-107" vertex="1">
          <mxGeometry y="43.07692307692307" width="400" height="516.9230769230769" as="geometry" />
        </mxCell>
        <mxCell id="DpT2R7imNi2lBxHPkehf-36" value="EC2 (API Server)&lt;br&gt;Port 80" style="text;html=1;strokeColor=none;fillColor=none;align=center;verticalAlign=middle;whiteSpace=wrap;rounded=0;fontSize=24;" parent="SQCVgLtViS05Q7iUAaWb-107" vertex="1">
          <mxGeometry x="21" y="261.15230769230766" width="250" height="80.76923076923076" as="geometry" />
        </mxCell>
        <mxCell id="SQCVgLtViS05Q7iUAaWb-120" value="RDS (Postgres)&lt;br&gt;Port 5432" style="text;html=1;strokeColor=none;fillColor=none;align=center;verticalAlign=middle;whiteSpace=wrap;rounded=0;fontSize=24;" vertex="1" parent="SQCVgLtViS05Q7iUAaWb-107">
          <mxGeometry x="21" y="424.6184615384615" width="250" height="80.76923076923076" as="geometry" />
        </mxCell>
        <mxCell id="SQCVgLtViS05Q7iUAaWb-111" value="" style="sketch=0;points=[[0,0,0],[0.25,0,0],[0.5,0,0],[0.75,0,0],[1,0,0],[0,1,0],[0.25,1,0],[0.5,1,0],[0.75,1,0],[1,1,0],[0,0.25,0],[0,0.5,0],[0,0.75,0],[1,0.25,0],[1,0.5,0],[1,0.75,0]];outlineConnect=0;fontColor=#232F3E;gradientColor=#F78E04;gradientDirection=north;fillColor=#D05C17;strokeColor=#ffffff;dashed=0;verticalLabelPosition=bottom;verticalAlign=top;align=center;html=1;fontSize=12;fontStyle=0;aspect=fixed;shape=mxgraph.aws4.resourceIcon;resIcon=mxgraph.aws4.ec2;" vertex="1" parent="SQCVgLtViS05Q7iUAaWb-107">
          <mxGeometry x="301" y="100" width="78" height="78" as="geometry" />
        </mxCell>
        <mxCell id="SQCVgLtViS05Q7iUAaWb-103" value="" style="sketch=0;points=[[0,0,0],[0.25,0,0],[0.5,0,0],[0.75,0,0],[1,0,0],[0,1,0],[0.25,1,0],[0.5,1,0],[0.75,1,0],[1,1,0],[0,0.25,0],[0,0.5,0],[0,0.75,0],[1,0.25,0],[1,0.5,0],[1,0.75,0]];outlineConnect=0;fontColor=#232F3E;gradientColor=#F78E04;gradientDirection=north;fillColor=#D05C17;strokeColor=#ffffff;dashed=0;verticalLabelPosition=bottom;verticalAlign=top;align=center;html=1;fontSize=12;fontStyle=0;aspect=fixed;shape=mxgraph.aws4.resourceIcon;resIcon=mxgraph.aws4.ec2;" vertex="1" parent="SQCVgLtViS05Q7iUAaWb-107">
          <mxGeometry x="301" y="261.15" width="78" height="78" as="geometry" />
        </mxCell>
        <mxCell id="DpT2R7imNi2lBxHPkehf-25" value="" style="outlineConnect=0;dashed=0;verticalLabelPosition=bottom;verticalAlign=top;align=center;html=1;shape=mxgraph.aws3.rds_db_instance;fillColor=#2E73B8;gradientColor=none;fontSize=24;" parent="SQCVgLtViS05Q7iUAaWb-107" vertex="1">
          <mxGeometry x="300.62" y="420" width="78.38" height="90" as="geometry" />
        </mxCell>
        <mxCell id="DpT2R7imNi2lBxHPkehf-11" value="Public subnet" style="points=[[0,0],[0.25,0],[0.5,0],[0.75,0],[1,0],[1,0.25],[1,0.5],[1,0.75],[1,1],[0.75,1],[0.5,1],[0.25,1],[0,1],[0,0.75],[0,0.5],[0,0.25]];outlineConnect=0;gradientColor=none;html=1;whiteSpace=wrap;fontSize=24;fontStyle=0;container=1;pointerEvents=0;collapsible=0;recursiveResize=0;shape=mxgraph.aws4.group;grIcon=mxgraph.aws4.group_security_group;grStroke=0;strokeColor=#248814;fillColor=#E9F3E6;verticalAlign=top;align=left;spacingLeft=30;fontColor=#248814;dashed=0;" parent="1" vertex="1">
          <mxGeometry x="960" y="440" width="400" height="160" as="geometry" />
        </mxCell>
        <mxCell id="DpT2R7imNi2lBxHPkehf-28" value="ALB&lt;br&gt;Port 80" style="text;html=1;strokeColor=none;fillColor=none;align=center;verticalAlign=middle;whiteSpace=wrap;rounded=0;fontSize=24;" parent="1" vertex="1">
          <mxGeometry x="399.75" y="282.5" width="160" height="118.75" as="geometry" />
        </mxCell>
        <mxCell id="SQCVgLtViS05Q7iUAaWb-147" style="edgeStyle=orthogonalEdgeStyle;rounded=0;orthogonalLoop=1;jettySize=auto;html=1;entryX=0;entryY=0.5;entryDx=0;entryDy=0;fontSize=24;strokeWidth=3;" edge="1" parent="1" source="DpT2R7imNi2lBxHPkehf-32" target="SQCVgLtViS05Q7iUAaWb-137">
          <mxGeometry relative="1" as="geometry" />
        </mxCell>
        <mxCell id="DpT2R7imNi2lBxHPkehf-32" value="" style="outlineConnect=0;dashed=0;verticalLabelPosition=bottom;verticalAlign=top;align=center;html=1;shape=mxgraph.aws3.application_load_balancer;fillColor=#F58536;gradientColor=none;" parent="1" vertex="1">
          <mxGeometry x="570" y="304" width="69" height="72" as="geometry" />
        </mxCell>
        <mxCell id="SQCVgLtViS05Q7iUAaWb-106" value="" style="group" vertex="1" connectable="0" parent="1">
          <mxGeometry x="240" y="440" width="390" height="160" as="geometry" />
        </mxCell>
        <mxCell id="DpT2R7imNi2lBxHPkehf-7" value="Public subnet" style="points=[[0,0],[0.25,0],[0.5,0],[0.75,0],[1,0],[1,0.25],[1,0.5],[1,0.75],[1,1],[0.75,1],[0.5,1],[0.25,1],[0,1],[0,0.75],[0,0.5],[0,0.25]];outlineConnect=0;gradientColor=none;html=1;whiteSpace=wrap;fontSize=24;fontStyle=0;container=1;pointerEvents=0;collapsible=0;recursiveResize=0;shape=mxgraph.aws4.group;grIcon=mxgraph.aws4.group_security_group;grStroke=0;strokeColor=#248814;fillColor=#E9F3E6;verticalAlign=top;align=left;spacingLeft=30;fontColor=#248814;dashed=0;" parent="SQCVgLtViS05Q7iUAaWb-106" vertex="1">
          <mxGeometry width="390" height="160" as="geometry" />
        </mxCell>
        <mxCell id="u4KVmvpJrNu0O2P0xlmL-3" value="" style="sketch=0;points=[[0,0,0],[0.25,0,0],[0.5,0,0],[0.75,0,0],[1,0,0],[0,1,0],[0.25,1,0],[0.5,1,0],[0.75,1,0],[1,1,0],[0,0.25,0],[0,0.5,0],[0,0.75,0],[1,0.25,0],[1,0.5,0],[1,0.75,0]];outlineConnect=0;fontColor=#232F3E;gradientColor=#F78E04;gradientDirection=north;fillColor=#D05C17;strokeColor=#ffffff;dashed=0;verticalLabelPosition=bottom;verticalAlign=top;align=center;html=1;fontSize=12;fontStyle=0;aspect=fixed;shape=mxgraph.aws4.resourceIcon;resIcon=mxgraph.aws4.ec2;" parent="SQCVgLtViS05Q7iUAaWb-106" vertex="1">
          <mxGeometry x="292.1295" y="52" width="76.05" height="76.05" as="geometry" />
        </mxCell>
        <mxCell id="u4KVmvpJrNu0O2P0xlmL-6" value="EC2 (Bastion host)&lt;br&gt;Port 80" style="text;html=1;strokeColor=none;fillColor=none;align=center;verticalAlign=middle;whiteSpace=wrap;rounded=0;fontSize=24;" parent="SQCVgLtViS05Q7iUAaWb-106" vertex="1">
          <mxGeometry x="19.5" y="50" width="273" height="80" as="geometry" />
        </mxCell>
        <mxCell id="SQCVgLtViS05Q7iUAaWb-156" style="edgeStyle=orthogonalEdgeStyle;rounded=0;orthogonalLoop=1;jettySize=auto;html=1;fontSize=24;strokeWidth=3;" edge="1" parent="1" source="SQCVgLtViS05Q7iUAaWb-102" target="SQCVgLtViS05Q7iUAaWb-114">
          <mxGeometry relative="1" as="geometry" />
        </mxCell>
        <mxCell id="SQCVgLtViS05Q7iUAaWb-102" value="Auto Scaling group" style="points=[[0,0],[0.25,0],[0.5,0],[0.75,0],[1,0],[1,0.25],[1,0.5],[1,0.75],[1,1],[0.75,1],[0.5,1],[0.25,1],[0,1],[0,0.75],[0,0.5],[0,0.25]];outlineConnect=0;gradientColor=none;html=1;whiteSpace=wrap;fontSize=24;fontStyle=0;container=1;pointerEvents=0;collapsible=0;recursiveResize=0;shape=mxgraph.aws4.groupCenter;grIcon=mxgraph.aws4.group_auto_scaling_group;grStroke=1;strokeColor=#D86613;fillColor=none;verticalAlign=top;align=center;fontColor=#D86613;dashed=1;spacingTop=25;" vertex="1" parent="1">
          <mxGeometry x="520" y="840" width="560" height="130" as="geometry" />
        </mxCell>
        <mxCell id="SQCVgLtViS05Q7iUAaWb-110" value="Auto Scaling group" style="points=[[0,0],[0.25,0],[0.5,0],[0.75,0],[1,0],[1,0.25],[1,0.5],[1,0.75],[1,1],[0.75,1],[0.5,1],[0.25,1],[0,1],[0,0.75],[0,0.5],[0,0.25]];outlineConnect=0;gradientColor=none;html=1;whiteSpace=wrap;fontSize=24;fontStyle=0;container=1;pointerEvents=0;collapsible=0;recursiveResize=0;shape=mxgraph.aws4.groupCenter;grIcon=mxgraph.aws4.group_auto_scaling_group;grStroke=1;strokeColor=#D86613;fillColor=none;verticalAlign=top;align=center;fontColor=#D86613;dashed=1;spacingTop=25;" vertex="1" parent="1">
          <mxGeometry x="520" y="680" width="560" height="125" as="geometry" />
        </mxCell>
        <mxCell id="SQCVgLtViS05Q7iUAaWb-112" value="" style="sketch=0;points=[[0,0,0],[0.25,0,0],[0.5,0,0],[0.75,0,0],[1,0,0],[0,1,0],[0.25,1,0],[0.5,1,0],[0.75,1,0],[1,1,0],[0,0.25,0],[0,0.5,0],[0,0.75,0],[1,0.25,0],[1,0.5,0],[1,0.75,0]];outlineConnect=0;fontColor=#232F3E;gradientColor=#F78E04;gradientDirection=north;fillColor=#D05C17;strokeColor=#ffffff;dashed=0;verticalLabelPosition=bottom;verticalAlign=top;align=center;html=1;fontSize=12;fontStyle=0;aspect=fixed;shape=mxgraph.aws4.resourceIcon;resIcon=mxgraph.aws4.ec2;" vertex="1" parent="SQCVgLtViS05Q7iUAaWb-110">
          <mxGeometry x="462" y="20" width="78" height="78" as="geometry" />
        </mxCell>
        <mxCell id="DpT2R7imNi2lBxHPkehf-23" style="edgeStyle=orthogonalEdgeStyle;rounded=0;orthogonalLoop=1;jettySize=auto;html=1;fontSize=24;strokeWidth=3;" parent="1" source="DpT2R7imNi2lBxHPkehf-25" target="DpT2R7imNi2lBxHPkehf-34" edge="1">
          <mxGeometry relative="1" as="geometry">
            <mxPoint x="597.88" y="890" as="sourcePoint" />
            <mxPoint x="967.88" y="910" as="targetPoint" />
          </mxGeometry>
        </mxCell>
        <mxCell id="DpT2R7imNi2lBxHPkehf-24" value="Multi-AZ" style="edgeLabel;html=1;align=center;verticalAlign=middle;resizable=0;points=[];fontSize=24;" parent="DpT2R7imNi2lBxHPkehf-23" vertex="1" connectable="0">
          <mxGeometry x="0.3215" y="-8" relative="1" as="geometry">
            <mxPoint x="-53" y="12" as="offset" />
          </mxGeometry>
        </mxCell>
        <mxCell id="SQCVgLtViS05Q7iUAaWb-114" value="" style="rounded=0;whiteSpace=wrap;html=1;fontSize=24;strokeWidth=3;fillColor=none;" vertex="1" parent="1">
          <mxGeometry x="520" y="1010" width="560" height="110" as="geometry" />
        </mxCell>
        <mxCell id="DpT2R7imNi2lBxHPkehf-26" value="EC2 (Frontend)&lt;br&gt;Port 80" style="text;html=1;strokeColor=none;fillColor=none;align=center;verticalAlign=middle;whiteSpace=wrap;rounded=0;fontSize=24;" parent="1" vertex="1">
          <mxGeometry x="260" y="710" width="250" height="80" as="geometry" />
        </mxCell>
        <mxCell id="SQCVgLtViS05Q7iUAaWb-117" value="Annotation" style="text;html=1;strokeColor=none;fillColor=none;align=center;verticalAlign=middle;whiteSpace=wrap;rounded=0;fontSize=24;" vertex="1" parent="1">
          <mxGeometry x="1701.75" y="540" width="200" height="60" as="geometry" />
        </mxCell>
        <mxCell id="SQCVgLtViS05Q7iUAaWb-137" value="&lt;font style=&quot;font-size: 24px;&quot;&gt;A1&lt;/font&gt;" style="text;html=1;strokeColor=default;fillColor=default;align=center;verticalAlign=middle;whiteSpace=wrap;rounded=0;" vertex="1" parent="1">
          <mxGeometry x="710" y="320" width="80" height="40" as="geometry" />
        </mxCell>
        <mxCell id="SQCVgLtViS05Q7iUAaWb-138" value="&lt;font style=&quot;font-size: 24px;&quot;&gt;A2&lt;/font&gt;" style="text;html=1;strokeColor=default;fillColor=default;align=center;verticalAlign=middle;whiteSpace=wrap;rounded=0;" vertex="1" parent="1">
          <mxGeometry x="810" y="320" width="80" height="40" as="geometry" />
        </mxCell>
        <mxCell id="SQCVgLtViS05Q7iUAaWb-148" value="ASG (Frontend)" style="text;html=1;strokeColor=none;fillColor=none;align=center;verticalAlign=middle;whiteSpace=wrap;rounded=0;dashed=1;fontSize=24;" vertex="1" parent="1">
          <mxGeometry x="1839.5" y="241.88" width="240.5" height="78.12" as="geometry" />
        </mxCell>
        <mxCell id="SQCVgLtViS05Q7iUAaWb-151" value="ASG (API server)" style="text;html=1;strokeColor=none;fillColor=none;align=center;verticalAlign=middle;whiteSpace=wrap;rounded=0;dashed=1;fontSize=24;" vertex="1" parent="1">
          <mxGeometry x="1839.5" y="400" width="240.5" height="80" as="geometry" />
        </mxCell>
        <mxCell id="SQCVgLtViS05Q7iUAaWb-160" value="" style="group" vertex="1" connectable="0" parent="1">
          <mxGeometry x="640" y="1240" width="321" height="156" as="geometry" />
        </mxCell>
        <mxCell id="SQCVgLtViS05Q7iUAaWb-153" value="" style="rounded=0;whiteSpace=wrap;html=1;fontSize=24;strokeWidth=2;fillColor=none;" vertex="1" parent="SQCVgLtViS05Q7iUAaWb-160">
          <mxGeometry width="321" height="120" as="geometry" />
        </mxCell>
        <mxCell id="DpT2R7imNi2lBxHPkehf-82" value="" style="sketch=0;points=[[0,0,0],[0.25,0,0],[0.5,0,0],[0.75,0,0],[1,0,0],[0,1,0],[0.25,1,0],[0.5,1,0],[0.75,1,0],[1,1,0],[0,0.25,0],[0,0.5,0],[0,0.75,0],[1,0.25,0],[1,0.5,0],[1,0.75,0]];points=[[0,0,0],[0.25,0,0],[0.5,0,0],[0.75,0,0],[1,0,0],[0,1,0],[0.25,1,0],[0.5,1,0],[0.75,1,0],[1,1,0],[0,0.25,0],[0,0.5,0],[0,0.75,0],[1,0.25,0],[1,0.5,0],[1,0.75,0]];outlineConnect=0;fontColor=#232F3E;gradientColor=#F34482;gradientDirection=north;fillColor=#BC1356;strokeColor=#ffffff;dashed=0;verticalLabelPosition=bottom;verticalAlign=top;align=center;html=1;fontSize=12;fontStyle=0;aspect=fixed;shape=mxgraph.aws4.resourceIcon;resIcon=mxgraph.aws4.cloudwatch_2;" parent="SQCVgLtViS05Q7iUAaWb-160" vertex="1">
          <mxGeometry x="42" y="20" width="78" height="78" as="geometry" />
        </mxCell>
        <mxCell id="SQCVgLtViS05Q7iUAaWb-86" value="" style="sketch=0;points=[[0,0,0],[0.25,0,0],[0.5,0,0],[0.75,0,0],[1,0,0],[0,1,0],[0.25,1,0],[0.5,1,0],[0.75,1,0],[1,1,0],[0,0.25,0],[0,0.5,0],[0,0.75,0],[1,0.25,0],[1,0.5,0],[1,0.75,0]];outlineConnect=0;fontColor=#232F3E;gradientColor=#FF4F8B;gradientDirection=north;fillColor=#BC1356;strokeColor=#ffffff;dashed=0;verticalLabelPosition=bottom;verticalAlign=top;align=center;html=1;fontSize=12;fontStyle=0;aspect=fixed;shape=mxgraph.aws4.resourceIcon;resIcon=mxgraph.aws4.sns;" vertex="1" parent="SQCVgLtViS05Q7iUAaWb-160">
          <mxGeometry x="201" y="20" width="78" height="78" as="geometry" />
        </mxCell>
        <mxCell id="SQCVgLtViS05Q7iUAaWb-158" value="Observability" style="text;html=1;strokeColor=none;fillColor=none;align=center;verticalAlign=middle;whiteSpace=wrap;rounded=0;dashed=1;fontSize=24;" vertex="1" parent="SQCVgLtViS05Q7iUAaWb-160">
          <mxGeometry x="55" y="120" width="211" height="36" as="geometry" />
        </mxCell>
      </root>
    </mxGraphModel>
  </diagram>
</mxfile>
